<?xml version="1.0" encoding="utf-8"?>
<!-- Generator: Adobe Illustrator 19.1.0, SVG Export Plug-In . SVG Version: 6.00 Build 0)  -->
<svg version="1.1" id="Isolation_Mode" xmlns="http://www.w3.org/2000/svg" xmlns:xlink="http://www.w3.org/1999/xlink" x="0px"
	 y="0px" viewBox="0 0 100 100" style="enable-background:new 0 0 100 100;" xml:space="preserve">
<style type="text/css">
	.st0{fill:#DADADA;}
</style>
<g>
	<path class="st0" d="M45,91.9v-7.3c-8.5-1.3-16.3-5.2-23.4-11.5l9.3-11.3c5.2,4.5,9.9,7.4,14.1,8.7V55.6c-7-1.8-12.1-4.2-15.4-7.2
		c-3.3-3-4.9-7.4-4.9-13.1s1.9-10.4,5.6-14.1c3.7-3.7,8.6-5.9,14.7-6.6V9.6h10.6v5.1c6.7,0.9,13.3,3.7,19.9,8.3l-8.2,11.8
		c-4.2-3-8.1-5-11.7-6v14.4c7.2,1.9,12.5,4.4,16,7.5c3.4,3.1,5.2,7.6,5.2,13.3c0,5.7-1.9,10.5-5.8,14.2c-3.8,3.7-9,6-15.4,6.7v7H45z
		 M45,28.4c-2.9,1-4.3,2.8-4.3,5.5c0,2.7,1.4,4.7,4.3,6.1V28.4z M60.7,64.8c0-1.4-0.4-2.6-1.1-3.5c-0.7-0.9-2.1-1.8-4-2.6V71
		C59,69.9,60.7,67.9,60.7,64.8z"/>
</g>
</svg>
